<svg id="Layer_1" data-name="Layer 1" xmlns="http://www.w3.org/2000/svg" viewBox="0 0 576.21 548.39"><path d="M1033.14,536.79c-11.89,16.74-93.2,126.68-194.18,151.92a127.41,127.41,0,0,1-71-2.89c-44-14.56-127.08-53.19-191.35-148.74a15.29,15.29,0,0,0-12.12-6.72l-52.62-2,.8,2.39c29.75,89,43.23,182.4,41.78,276.2-1.17,75.59,21.45,175.6,130.91,237.88,0,0,209.44,112.42,336.7-102.72,0,0,36.81-56.23,28.65-140.15a17.33,17.33,0,0,0-16.39-15.55C986.91,784,837.66,783.94,799,876.58a11,11,0,0,0,10.21,15.2c30.3-.07,96.31.54,113.09,7a2.34,2.34,0,0,1,1.27,3.23c-7.47,15.85-58.14,113.25-158.19,71.71A58.07,58.07,0,0,1,735,945.41c-13.41-28.07-19.63-82.58,71.37-150,0,0,95.88-62.77,200.31-51.93h0A29.71,29.71,0,0,0,1039.24,722l48.25-175a16.69,16.69,0,0,0-20.22-20.61l-30,7.65A7.17,7.17,0,0,0,1033.14,536.79Z" transform="translate(-511.89 -525.8)"/></svg>