<svg width="34" height="34" viewBox="0 0 34 34" fill="none" xmlns="http://www.w3.org/2000/svg">
<path d="M19.907 2.59674C19.6894 2.4189 19.4387 2.286 19.1694 2.20571C18.9001 2.12542 18.6175 2.09934 18.3381 2.12898C18.0586 2.15863 17.7879 2.24341 17.5414 2.37841C17.2949 2.51341 17.0777 2.69596 16.9023 2.91549L10.7483 10.625H13.4682L18.5619 4.24149L20.1981 5.57811L16.0969 10.625H18.8339L21.845 6.91899L25.4958 9.90036L24.8625 10.625H25.5C26.1337 10.6243 26.764 10.7181 27.37 10.9034C27.6015 10.4691 27.6751 9.9679 27.5782 9.4854C27.4813 9.0029 27.22 8.56899 26.8388 8.25774L19.907 2.59674ZM6.375 11.6875C6.375 11.4057 6.48694 11.1354 6.6862 10.9362C6.88546 10.7369 7.15571 10.625 7.4375 10.625H8.62325L10.3126 8.49999H7.4375C6.59212 8.49999 5.78137 8.83581 5.1836 9.43358C4.58583 10.0314 4.25 10.8421 4.25 11.6875V24.4375C4.25 25.8464 4.80971 27.1977 5.806 28.194C6.80228 29.1903 8.15354 29.75 9.5625 29.75H25.5C26.6272 29.75 27.7082 29.3022 28.5052 28.5052C29.3022 27.7082 29.75 26.6272 29.75 25.5V17C29.75 15.8728 29.3022 14.7918 28.5052 13.9948C27.7082 13.1978 26.6272 12.75 25.5 12.75H7.4375C7.15571 12.75 6.88546 12.638 6.6862 12.4388C6.48694 12.2395 6.375 11.9693 6.375 11.6875ZM22.3125 21.25H24.4375C24.7193 21.25 24.9895 21.3619 25.1888 21.5612C25.3881 21.7604 25.5 22.0307 25.5 22.3125C25.5 22.5943 25.3881 22.8645 25.1888 23.0638C24.9895 23.263 24.7193 23.375 24.4375 23.375H22.3125C22.0307 23.375 21.7605 23.263 21.5612 23.0638C21.3619 22.8645 21.25 22.5943 21.25 22.3125C21.25 22.0307 21.3619 21.7604 21.5612 21.5612C21.7605 21.3619 22.0307 21.25 22.3125 21.25Z" fill="#00AC4F"/>
</svg>
