<svg width="43" height="40" viewBox="0 0 43 40" fill="none" xmlns="http://www.w3.org/2000/svg">
<path d="M26.0742 31.75L28.7384 34.2834L34.0668 29.2167" stroke="#00AC4F" stroke-width="2.5" stroke-linecap="round" stroke-linejoin="round"/>
<path d="M22.0783 18.117C21.903 18.1003 21.6927 18.1003 21.4999 18.117C17.3283 17.9837 14.0156 14.7337 14.0156 10.7337C13.9981 6.65035 17.4861 3.33368 21.7803 3.33368C26.0746 3.33368 29.5626 6.65035 29.5626 10.7337C29.5626 14.7337 26.2323 17.9837 22.0783 18.117Z" stroke="#00AC4F" stroke-width="2.5" stroke-linecap="round" stroke-linejoin="round"/>
<path d="M21.7798 36.3498C18.5898 36.3498 15.4173 35.5832 12.9985 34.0498C8.75686 31.3498 8.75686 26.9498 12.9985 24.2665C17.8186 21.1998 25.7235 21.1998 30.5436 24.2665" stroke="#00AC4F" stroke-width="2.5" stroke-linecap="round" stroke-linejoin="round"/>
</svg>
