<svg width="45" height="42" viewBox="0 0 45 42" fill="none" xmlns="http://www.w3.org/2000/svg">
<path d="M17.5773 19.0229C17.3932 19.0054 17.1724 19.0054 16.9699 19.0229C12.5898 18.8829 9.11145 15.4704 9.11145 11.2704C9.11145 6.98287 12.7554 3.50037 17.2828 3.50037C21.7918 3.50037 25.4541 6.98287 25.4541 11.2704C25.4357 15.4704 21.9574 18.8829 17.5773 19.0229Z" stroke="#00AC4F" stroke-width="2.625" stroke-linecap="round" stroke-linejoin="round"/>
<path d="M30.9195 6.99963C34.4899 6.99963 37.3609 9.74713 37.3609 13.1246C37.3609 16.4321 34.6003 19.1271 31.1588 19.2496C31.0115 19.2321 30.8459 19.2321 30.6803 19.2496" stroke="#00AC4F" stroke-width="2.625" stroke-linecap="round" stroke-linejoin="round"/>
<path d="M8.37558 25.4796C3.92183 28.3146 3.92183 32.9346 8.37558 35.7521C13.4367 38.9721 21.7368 38.9721 26.7979 35.7521C31.2517 32.9171 31.2517 28.2971 26.7979 25.4796C21.7552 22.2771 13.4551 22.2771 8.37558 25.4796Z" stroke="#00AC4F" stroke-width="2.625" stroke-linecap="round" stroke-linejoin="round"/>
<path d="M34.4715 35.0004C35.7966 34.7379 37.0481 34.2304 38.0787 33.4779C40.9497 31.4304 40.9497 28.0529 38.0787 26.0054C37.0665 25.2704 35.8334 24.7804 34.5267 24.5004" stroke="#00AC4F" stroke-width="2.625" stroke-linecap="round" stroke-linejoin="round"/>
</svg>
