<svg width="28" height="28" viewBox="0 0 28 28" fill="none" xmlns="http://www.w3.org/2000/svg">
<g clip-path="url(#clip0_704_655)">
<path d="M27.5217 4.05419C27.2245 3.23712 26.752 2.4951 26.1372 1.88033C25.5224 1.26556 24.7804 0.792983 23.9633 0.495859C22.435 0.00585941 21.0467 0.00585938 18.2233 0.00585938H9.75333C6.95333 0.00585938 5.54167 0.00585938 4.03667 0.472526C3.21841 0.770888 2.47564 1.24525 1.86079 1.86211C1.24594 2.47898 0.774015 3.2233 0.478333 4.04253C0 5.55919 0 6.95919 0 9.75919V18.2409C0 21.0525 0 22.4409 0.466667 23.9575C0.76379 24.7746 1.23636 25.5166 1.85113 26.1314C2.4659 26.7462 3.20793 27.2187 4.025 27.5159C5.54167 27.9942 6.94167 27.9942 9.74167 27.9942H18.235C21.0467 27.9942 22.4467 27.9942 23.9517 27.5275C24.7721 27.2306 25.5172 26.7569 26.1341 26.14C26.751 25.523 27.2247 24.7779 27.5217 23.9575C28 22.4409 28 21.0409 28 18.2409V9.78253C28 6.97086 28 5.57086 27.5217 4.05419ZM20.3233 9.45586L19.2383 10.5409C19.1326 10.6392 18.9941 10.6948 18.8497 10.697C18.7054 10.6992 18.5653 10.6477 18.4567 10.5525C17.4059 9.66512 16.0754 9.17753 14.7 9.17586C13.5683 9.17586 12.4367 9.54919 12.4367 10.5875C12.4367 11.6375 13.65 11.9875 15.05 12.5125C17.5 13.3292 19.53 14.3559 19.53 16.7592C19.53 19.3725 17.5 21.1692 14.1867 21.3675L13.8833 22.7675C13.8565 22.8962 13.7862 23.0117 13.6842 23.0945C13.5822 23.1774 13.4548 23.2226 13.3233 23.2225H11.235L11.13 23.2109C10.9805 23.1773 10.8502 23.0863 10.7673 22.9575C10.6843 22.8287 10.6554 22.6725 10.6867 22.5225L11.0133 21.0409C9.75592 20.7256 8.59955 20.0953 7.65333 19.2092V19.1975C7.60113 19.1455 7.5597 19.0837 7.53144 19.0156C7.50317 18.9475 7.48862 18.8746 7.48862 18.8009C7.48862 18.7272 7.50317 18.6542 7.53144 18.5861C7.5597 18.518 7.60113 18.4562 7.65333 18.4042L8.82 17.2725C8.92594 17.1733 9.06567 17.1181 9.21083 17.1181C9.356 17.1181 9.49573 17.1733 9.60167 17.2725C10.6633 18.2759 12.0867 18.8359 13.5567 18.8125C15.0733 18.8125 16.0883 18.1709 16.0883 17.1559C16.0883 16.1409 15.0617 15.8725 13.125 15.1492C11.0717 14.4142 9.12333 13.3759 9.12333 10.9492C9.12333 8.12586 11.4683 6.74919 14.245 6.62086L14.5367 5.18586C14.5638 5.05833 14.6346 4.94426 14.7368 4.86333C14.839 4.78239 14.9663 4.73967 15.0967 4.74253H17.1733L17.29 4.75419C17.5933 4.82419 17.7917 5.11586 17.7217 5.41919L17.4067 7.01753C18.4567 7.36753 19.4483 7.91586 20.3 8.63919L20.3233 8.66253C20.545 8.89586 20.545 9.24586 20.3233 9.45586Z" fill="#00AC4F"/>
</g>
<defs>
<clipPath id="clip0_704_655">
<rect width="28" height="28" fill="white"/>
</clipPath>
</defs>
</svg>
